<svg xmlns="http://www.w3.org/2000/svg" width="40" height="40" viewBox="0 0 40 40"><g transform="translate(-933 -2108)"><g transform="translate(80 -416)"><circle cx="20" cy="20" r="20" transform="translate(853 2524)" fill="rgba(242,201,101,0.25)"/><path d="M15.691,1.8A1.054,1.054,0,0,0,14.946,0H1.059A1.054,1.054,0,0,0,.313,1.8L7,8.489V14.5H5.252A1.25,1.25,0,0,0,4,15.75a.25.25,0,0,0,.25.25h7.5a.25.25,0,0,0,.25-.25,1.25,1.25,0,0,0-1.25-1.25H9V8.489ZM13.87,1.5,12.37,3H3.635l-1.5-1.5Z" transform="translate(864.998 2536)" fill="#b7985f"/></g></g></svg>