<svg xmlns="http://www.w3.org/2000/svg" width="40" height="40" viewBox="0 0 40 40"><g transform="translate(-683 -2108)"><g transform="translate(94 -519)"><circle cx="20" cy="20" r="20" transform="translate(589 2627)" fill="rgba(242,201,101,0.25)"/><path d="M5.945,43h6a3,3,0,0,0,3-3h1a4,4,0,1,0,0-8H3.7a.748.748,0,0,0-.75.75V40A3,3,0,0,0,5.945,43Zm10-9a2,2,0,1,1,0,4h-1V34Zm1.49,12H1.455C-.032,46-.451,44,.33,44H18.557c.781,0,.369,2-1.122,2Z" transform="translate(599.056 2608)" fill="#b7985f"/></g></g></svg>