<svg xmlns="http://www.w3.org/2000/svg" width="40" height="40" viewBox="0 0 40 40"><g transform="translate(-933 -2038)"><g transform="translate(130 -486)"><circle cx="20" cy="20" r="20" transform="translate(803 2524)" fill="rgba(242,201,101,0.25)"/><path d="M10.625,3.75A1.875,1.875,0,1,0,8.75,1.875,1.875,1.875,0,0,0,10.625,3.75ZM4.441,12.4,3.863,13.75H1.25a1.25,1.25,0,1,0,0,2.5H4.276A1.871,1.871,0,0,0,6,15.114l.343-.8-.417-.246A3.72,3.72,0,0,1,4.441,12.4ZM15,8.75h-1.72L12.263,6.67A3.748,3.748,0,0,0,9.849,4.68L7.073,3.854a3.734,3.734,0,0,0-3.158.67L2.365,5.712A1.25,1.25,0,0,0,3.886,7.7l1.55-1.188a1.216,1.216,0,0,1,.987-.24L7,6.438,5.535,9.852a2.507,2.507,0,0,0,1.027,3.137l3.32,1.96L8.809,18.376a1.25,1.25,0,1,0,2.386.747l1.236-3.948a1.883,1.883,0,0,0-.845-2.125L9.193,11.639l1.223-3.058.792,1.618a1.887,1.887,0,0,0,1.684,1.05H15a1.25,1.25,0,1,0,0-2.5Z" transform="translate(815 2534)" fill="#b7985f"/></g></g></svg>