<svg xmlns="http://www.w3.org/2000/svg" width="40" height="40" viewBox="0 0 40 40"><g transform="translate(-933 -2178)"><g transform="translate(30 -346)"><circle cx="20" cy="20" r="20" transform="translate(903 2524)" fill="rgba(242,201,101,0.25)"/><path d="M6.9.5A40.6,40.6,0,0,1,7.437,4.78,3.5,3.5,0,0,1,5.15,8.253l.428,7.906a.8.8,0,0,1-.8.84H2.656a.8.8,0,0,1-.8-.84l.428-7.906A3.5,3.5,0,0,1,0,4.78,40.476,40.476,0,0,1,.535.5c.106-.674,1.5-.684,1.59.037V5.228c.043.113.5.106.531,0C2.7,4.388,2.919.606,2.922.52c.11-.691,1.484-.691,1.59,0,.007.09.219,3.868.266,4.708.03.106.491.113.531,0V.54C5.4-.177,6.8-.171,6.9.5Zm3.958,9.486-.5,6.146a.8.8,0,0,0,.794.863h1.859a.8.8,0,0,0,.8-.8V.8a.8.8,0,0,0-.8-.8c-2.739,0-7.351,5.927-2.155,9.991Z" transform="translate(916 2536.001)" fill="#b7985f"/></g></g></svg>