<svg xmlns="http://www.w3.org/2000/svg" width="40" height="40" viewBox="0 0 40 40"><g transform="translate(-683 -2178)"><g transform="translate(-70 -346)"><circle cx="20" cy="20" r="20" transform="translate(753 2524)" fill="rgba(242,201,101,0.25)"/><path d="M6.518,103.374A1.884,1.884,0,0,0,7.7,103.7a1.883,1.883,0,0,0,1.182-.324,2.707,2.707,0,0,1,1.838-.776h.56a2.707,2.707,0,0,1,1.838.776,1.884,1.884,0,0,0,1.182.324,1.883,1.883,0,0,0,1.182-.324,2.733,2.733,0,0,1,1.7-.762L13.3,99.842l.619-.442a.558.558,0,0,1,.434-.09l3.45.74a1.65,1.65,0,1,0,.692-3.227l-3.45-.74A3.857,3.857,0,0,0,12,96.715L9.25,98.68a3.834,3.834,0,0,0-.918.926l-2.359,3.37A3.163,3.163,0,0,1,6.518,103.374ZM21.45,104.8H20.9a2.9,2.9,0,0,1-1.928-.615,1.629,1.629,0,0,0-1.092-.485h-.56a1.629,1.629,0,0,0-1.092.485,2.9,2.9,0,0,1-1.927.615,2.9,2.9,0,0,1-1.928-.615,1.629,1.629,0,0,0-1.092-.485h-.56a1.629,1.629,0,0,0-1.092.485A2.9,2.9,0,0,1,7.7,104.8a2.9,2.9,0,0,1-1.928-.615A1.629,1.629,0,0,0,4.68,103.7H4.12a1.629,1.629,0,0,0-1.092.485A2.9,2.9,0,0,1,1.1,104.8H.55a.55.55,0,0,0-.55.55v1.1a.55.55,0,0,0,.55.55H1.1A5.125,5.125,0,0,0,4.4,105.9,5.123,5.123,0,0,0,7.7,107,5.125,5.125,0,0,0,11,105.9,5.123,5.123,0,0,0,14.3,107a5.125,5.125,0,0,0,3.3-1.095A5.123,5.123,0,0,0,20.9,107h.55a.55.55,0,0,0,.55-.55v-1.1A.55.55,0,0,0,21.45,104.8Zm-17.6-3.3a2.75,2.75,0,1,0-2.75-2.75A2.75,2.75,0,0,0,3.85,101.5Z" transform="translate(762 2443.002)" fill="#b7985f"/></g></g></svg>